<svg width="1928" height="1592" viewBox="0 0 1928 1592" fill="none" xmlns="http://www.w3.org/2000/svg">
<g clip-path="url(#clip0)">
<rect width="1368" height="1648" transform="translate(140 1480) rotate(-90)" fill="white"/>
<rect x="226" y="165" width="353" height="100" rx="14" fill="#E7002A"/>
<path d="M355.766 214.531C357.1 214.821 358.125 215.401 358.84 216.271C359.575 217.122 359.942 218.224 359.942 219.577C359.942 221.317 359.295 222.661 357.999 223.608C356.723 224.536 354.829 225 352.315 225H342.977V204.7H351.735C353.997 204.7 355.747 205.154 356.984 206.063C358.241 206.972 358.869 208.257 358.869 209.92C358.869 211.041 358.589 211.998 358.028 212.791C357.487 213.564 356.733 214.144 355.766 214.531ZM345.123 206.469V213.835H351.59C353.234 213.835 354.5 213.526 355.389 212.907C356.279 212.269 356.723 211.351 356.723 210.152C356.723 208.953 356.279 208.045 355.389 207.426C354.5 206.788 353.234 206.469 351.59 206.469H345.123ZM352.286 223.231C354.104 223.231 355.476 222.922 356.404 222.303C357.332 221.684 357.796 220.718 357.796 219.403C357.796 216.87 355.96 215.604 352.286 215.604H345.123V223.231H352.286ZM373.019 225.174C370.389 225.174 368.34 224.42 366.871 222.912C365.401 221.404 364.667 219.21 364.667 216.329V204.7H366.813V216.242C366.813 218.601 367.344 220.36 368.408 221.52C369.471 222.68 371.008 223.26 373.019 223.26C375.049 223.26 376.595 222.68 377.659 221.52C378.722 220.36 379.254 218.601 379.254 216.242V204.7H381.342V216.329C381.342 219.21 380.607 221.404 379.138 222.912C377.688 224.42 375.648 225.174 373.019 225.174ZM391.356 206.556H384.222V204.7H400.636V206.556H393.502V225H391.356V206.556ZM408.292 206.556H401.158V204.7H417.572V206.556H410.438V225H408.292V206.556ZM429.591 225.174C427.58 225.174 425.753 224.729 424.11 223.84C422.486 222.931 421.21 221.694 420.282 220.128C419.373 218.562 418.919 216.803 418.919 214.85C418.919 212.897 419.373 211.138 420.282 209.572C421.21 208.006 422.486 206.778 424.11 205.889C425.753 204.98 427.58 204.526 429.591 204.526C431.601 204.526 433.409 204.971 435.014 205.86C436.638 206.749 437.914 207.987 438.842 209.572C439.77 211.138 440.234 212.897 440.234 214.85C440.234 216.803 439.77 218.572 438.842 220.157C437.914 221.723 436.638 222.951 435.014 223.84C433.409 224.729 431.601 225.174 429.591 225.174ZM429.591 223.26C431.195 223.26 432.645 222.902 433.941 222.187C435.236 221.452 436.251 220.447 436.986 219.171C437.72 217.876 438.088 216.435 438.088 214.85C438.088 213.265 437.72 211.834 436.986 210.558C436.251 209.263 435.236 208.257 433.941 207.542C432.645 206.807 431.195 206.44 429.591 206.44C427.986 206.44 426.526 206.807 425.212 207.542C423.916 208.257 422.892 209.263 422.138 210.558C421.403 211.834 421.036 213.265 421.036 214.85C421.036 216.435 421.403 217.876 422.138 219.171C422.892 220.447 423.916 221.452 425.212 222.187C426.526 222.902 427.986 223.26 429.591 223.26ZM462.009 204.7V225H460.24L447.19 208.528V225H445.044V204.7H446.813L459.892 221.172V204.7H462.009Z" fill="white"/>
<rect x="658" y="167" width="349" height="96" rx="12" stroke="#E7002A" stroke-width="4"/>
<path d="M785.766 214.531C787.1 214.821 788.125 215.401 788.84 216.271C789.575 217.122 789.942 218.224 789.942 219.577C789.942 221.317 789.295 222.661 787.999 223.608C786.723 224.536 784.829 225 782.315 225H772.977V204.7H781.735C783.997 204.7 785.747 205.154 786.984 206.063C788.241 206.972 788.869 208.257 788.869 209.92C788.869 211.041 788.589 211.998 788.028 212.791C787.487 213.564 786.733 214.144 785.766 214.531ZM775.123 206.469V213.835H781.59C783.234 213.835 784.5 213.526 785.389 212.907C786.279 212.269 786.723 211.351 786.723 210.152C786.723 208.953 786.279 208.045 785.389 207.426C784.5 206.788 783.234 206.469 781.59 206.469H775.123ZM782.286 223.231C784.104 223.231 785.476 222.922 786.404 222.303C787.332 221.684 787.796 220.718 787.796 219.403C787.796 216.87 785.96 215.604 782.286 215.604H775.123V223.231H782.286ZM803.019 225.174C800.389 225.174 798.34 224.42 796.871 222.912C795.401 221.404 794.667 219.21 794.667 216.329V204.7H796.813V216.242C796.813 218.601 797.344 220.36 798.408 221.52C799.471 222.68 801.008 223.26 803.019 223.26C805.049 223.26 806.595 222.68 807.659 221.52C808.722 220.36 809.254 218.601 809.254 216.242V204.7H811.342V216.329C811.342 219.21 810.607 221.404 809.138 222.912C807.688 224.42 805.648 225.174 803.019 225.174ZM821.356 206.556H814.222V204.7H830.636V206.556H823.502V225H821.356V206.556ZM838.292 206.556H831.158V204.7H847.572V206.556H840.438V225H838.292V206.556ZM859.591 225.174C857.58 225.174 855.753 224.729 854.11 223.84C852.486 222.931 851.21 221.694 850.282 220.128C849.373 218.562 848.919 216.803 848.919 214.85C848.919 212.897 849.373 211.138 850.282 209.572C851.21 208.006 852.486 206.778 854.11 205.889C855.753 204.98 857.58 204.526 859.591 204.526C861.601 204.526 863.409 204.971 865.014 205.86C866.638 206.749 867.914 207.987 868.842 209.572C869.77 211.138 870.234 212.897 870.234 214.85C870.234 216.803 869.77 218.572 868.842 220.157C867.914 221.723 866.638 222.951 865.014 223.84C863.409 224.729 861.601 225.174 859.591 225.174ZM859.591 223.26C861.195 223.26 862.645 222.902 863.941 222.187C865.236 221.452 866.251 220.447 866.986 219.171C867.72 217.876 868.088 216.435 868.088 214.85C868.088 213.265 867.72 211.834 866.986 210.558C866.251 209.263 865.236 208.257 863.941 207.542C862.645 206.807 861.195 206.44 859.591 206.44C857.986 206.44 856.526 206.807 855.212 207.542C853.916 208.257 852.892 209.263 852.138 210.558C851.403 211.834 851.036 213.265 851.036 214.85C851.036 216.435 851.403 217.876 852.138 219.171C852.892 220.447 853.916 221.452 855.212 222.187C856.526 222.902 857.986 223.26 859.591 223.26ZM892.009 204.7V225H890.24L877.19 208.528V225H875.044V204.7H876.813L889.892 221.172V204.7H892.009Z" fill="#E7002A"/>
<rect x="226" y="689" width="353" height="100" rx="14" fill="#6300C7"/>
<path d="M355.766 738.531C357.1 738.821 358.125 739.401 358.84 740.271C359.575 741.122 359.942 742.224 359.942 743.577C359.942 745.317 359.295 746.661 357.999 747.608C356.723 748.536 354.829 749 352.315 749H342.977V728.7H351.735C353.997 728.7 355.747 729.154 356.984 730.063C358.241 730.972 358.869 732.257 358.869 733.92C358.869 735.041 358.589 735.998 358.028 736.791C357.487 737.564 356.733 738.144 355.766 738.531ZM345.123 730.469V737.835H351.59C353.234 737.835 354.5 737.526 355.389 736.907C356.279 736.269 356.723 735.351 356.723 734.152C356.723 732.953 356.279 732.045 355.389 731.426C354.5 730.788 353.234 730.469 351.59 730.469H345.123ZM352.286 747.231C354.104 747.231 355.476 746.922 356.404 746.303C357.332 745.684 357.796 744.718 357.796 743.403C357.796 740.87 355.96 739.604 352.286 739.604H345.123V747.231H352.286ZM373.019 749.174C370.389 749.174 368.34 748.42 366.871 746.912C365.401 745.404 364.667 743.21 364.667 740.329V728.7H366.813V740.242C366.813 742.601 367.344 744.36 368.408 745.52C369.471 746.68 371.008 747.26 373.019 747.26C375.049 747.26 376.595 746.68 377.659 745.52C378.722 744.36 379.254 742.601 379.254 740.242V728.7H381.342V740.329C381.342 743.21 380.607 745.404 379.138 746.912C377.688 748.42 375.648 749.174 373.019 749.174ZM391.356 730.556H384.222V728.7H400.636V730.556H393.502V749H391.356V730.556ZM408.292 730.556H401.158V728.7H417.572V730.556H410.438V749H408.292V730.556ZM429.591 749.174C427.58 749.174 425.753 748.729 424.11 747.84C422.486 746.931 421.21 745.694 420.282 744.128C419.373 742.562 418.919 740.803 418.919 738.85C418.919 736.897 419.373 735.138 420.282 733.572C421.21 732.006 422.486 730.778 424.11 729.889C425.753 728.98 427.58 728.526 429.591 728.526C431.601 728.526 433.409 728.971 435.014 729.86C436.638 730.749 437.914 731.987 438.842 733.572C439.77 735.138 440.234 736.897 440.234 738.85C440.234 740.803 439.77 742.572 438.842 744.157C437.914 745.723 436.638 746.951 435.014 747.84C433.409 748.729 431.601 749.174 429.591 749.174ZM429.591 747.26C431.195 747.26 432.645 746.902 433.941 746.187C435.236 745.452 436.251 744.447 436.986 743.171C437.72 741.876 438.088 740.435 438.088 738.85C438.088 737.265 437.72 735.834 436.986 734.558C436.251 733.263 435.236 732.257 433.941 731.542C432.645 730.807 431.195 730.44 429.591 730.44C427.986 730.44 426.526 730.807 425.212 731.542C423.916 732.257 422.892 733.263 422.138 734.558C421.403 735.834 421.036 737.265 421.036 738.85C421.036 740.435 421.403 741.876 422.138 743.171C422.892 744.447 423.916 745.452 425.212 746.187C426.526 746.902 427.986 747.26 429.591 747.26ZM462.009 728.7V749H460.24L447.19 732.528V749H445.044V728.7H446.813L459.892 745.172V728.7H462.009Z" fill="white"/>
<rect x="658" y="691" width="349" height="96" rx="12" stroke="#6300C7" stroke-width="4"/>
<path d="M785.766 738.531C787.1 738.821 788.125 739.401 788.84 740.271C789.575 741.122 789.942 742.224 789.942 743.577C789.942 745.317 789.295 746.661 787.999 747.608C786.723 748.536 784.829 749 782.315 749H772.977V728.7H781.735C783.997 728.7 785.747 729.154 786.984 730.063C788.241 730.972 788.869 732.257 788.869 733.92C788.869 735.041 788.589 735.998 788.028 736.791C787.487 737.564 786.733 738.144 785.766 738.531ZM775.123 730.469V737.835H781.59C783.234 737.835 784.5 737.526 785.389 736.907C786.279 736.269 786.723 735.351 786.723 734.152C786.723 732.953 786.279 732.045 785.389 731.426C784.5 730.788 783.234 730.469 781.59 730.469H775.123ZM782.286 747.231C784.104 747.231 785.476 746.922 786.404 746.303C787.332 745.684 787.796 744.718 787.796 743.403C787.796 740.87 785.96 739.604 782.286 739.604H775.123V747.231H782.286ZM803.019 749.174C800.389 749.174 798.34 748.42 796.871 746.912C795.401 745.404 794.667 743.21 794.667 740.329V728.7H796.813V740.242C796.813 742.601 797.344 744.36 798.408 745.52C799.471 746.68 801.008 747.26 803.019 747.26C805.049 747.26 806.595 746.68 807.659 745.52C808.722 744.36 809.254 742.601 809.254 740.242V728.7H811.342V740.329C811.342 743.21 810.607 745.404 809.138 746.912C807.688 748.42 805.648 749.174 803.019 749.174ZM821.356 730.556H814.222V728.7H830.636V730.556H823.502V749H821.356V730.556ZM838.292 730.556H831.158V728.7H847.572V730.556H840.438V749H838.292V730.556ZM859.591 749.174C857.58 749.174 855.753 748.729 854.11 747.84C852.486 746.931 851.21 745.694 850.282 744.128C849.373 742.562 848.919 740.803 848.919 738.85C848.919 736.897 849.373 735.138 850.282 733.572C851.21 732.006 852.486 730.778 854.11 729.889C855.753 728.98 857.58 728.526 859.591 728.526C861.601 728.526 863.409 728.971 865.014 729.86C866.638 730.749 867.914 731.987 868.842 733.572C869.77 735.138 870.234 736.897 870.234 738.85C870.234 740.803 869.77 742.572 868.842 744.157C867.914 745.723 866.638 746.951 865.014 747.84C863.409 748.729 861.601 749.174 859.591 749.174ZM859.591 747.26C861.195 747.26 862.645 746.902 863.941 746.187C865.236 745.452 866.251 744.447 866.986 743.171C867.72 741.876 868.088 740.435 868.088 738.85C868.088 737.265 867.72 735.834 866.986 734.558C866.251 733.263 865.236 732.257 863.941 731.542C862.645 730.807 861.195 730.44 859.591 730.44C857.986 730.44 856.526 730.807 855.212 731.542C853.916 732.257 852.892 733.263 852.138 734.558C851.403 735.834 851.036 737.265 851.036 738.85C851.036 740.435 851.403 741.876 852.138 743.171C852.892 744.447 853.916 745.452 855.212 746.187C856.526 746.902 857.986 747.26 859.591 747.26ZM892.009 728.7V749H890.24L877.19 732.528V749H875.044V728.7H876.813L889.892 745.172V728.7H892.009Z" fill="#6300C7"/>
<rect x="226" y="820" width="353" height="100" rx="14" fill="#101010"/>
<path d="M355.766 869.531C357.1 869.821 358.125 870.401 358.84 871.271C359.575 872.122 359.942 873.224 359.942 874.577C359.942 876.317 359.295 877.661 357.999 878.608C356.723 879.536 354.829 880 352.315 880H342.977V859.7H351.735C353.997 859.7 355.747 860.154 356.984 861.063C358.241 861.972 358.869 863.257 358.869 864.92C358.869 866.041 358.589 866.998 358.028 867.791C357.487 868.564 356.733 869.144 355.766 869.531ZM345.123 861.469V868.835H351.59C353.234 868.835 354.5 868.526 355.389 867.907C356.279 867.269 356.723 866.351 356.723 865.152C356.723 863.953 356.279 863.045 355.389 862.426C354.5 861.788 353.234 861.469 351.59 861.469H345.123ZM352.286 878.231C354.104 878.231 355.476 877.922 356.404 877.303C357.332 876.684 357.796 875.718 357.796 874.403C357.796 871.87 355.96 870.604 352.286 870.604H345.123V878.231H352.286ZM373.019 880.174C370.389 880.174 368.34 879.42 366.871 877.912C365.401 876.404 364.667 874.21 364.667 871.329V859.7H366.813V871.242C366.813 873.601 367.344 875.36 368.408 876.52C369.471 877.68 371.008 878.26 373.019 878.26C375.049 878.26 376.595 877.68 377.659 876.52C378.722 875.36 379.254 873.601 379.254 871.242V859.7H381.342V871.329C381.342 874.21 380.607 876.404 379.138 877.912C377.688 879.42 375.648 880.174 373.019 880.174ZM391.356 861.556H384.222V859.7H400.636V861.556H393.502V880H391.356V861.556ZM408.292 861.556H401.158V859.7H417.572V861.556H410.438V880H408.292V861.556ZM429.591 880.174C427.58 880.174 425.753 879.729 424.11 878.84C422.486 877.931 421.21 876.694 420.282 875.128C419.373 873.562 418.919 871.803 418.919 869.85C418.919 867.897 419.373 866.138 420.282 864.572C421.21 863.006 422.486 861.778 424.11 860.889C425.753 859.98 427.58 859.526 429.591 859.526C431.601 859.526 433.409 859.971 435.014 860.86C436.638 861.749 437.914 862.987 438.842 864.572C439.77 866.138 440.234 867.897 440.234 869.85C440.234 871.803 439.77 873.572 438.842 875.157C437.914 876.723 436.638 877.951 435.014 878.84C433.409 879.729 431.601 880.174 429.591 880.174ZM429.591 878.26C431.195 878.26 432.645 877.902 433.941 877.187C435.236 876.452 436.251 875.447 436.986 874.171C437.72 872.876 438.088 871.435 438.088 869.85C438.088 868.265 437.72 866.834 436.986 865.558C436.251 864.263 435.236 863.257 433.941 862.542C432.645 861.807 431.195 861.44 429.591 861.44C427.986 861.44 426.526 861.807 425.212 862.542C423.916 863.257 422.892 864.263 422.138 865.558C421.403 866.834 421.036 868.265 421.036 869.85C421.036 871.435 421.403 872.876 422.138 874.171C422.892 875.447 423.916 876.452 425.212 877.187C426.526 877.902 427.986 878.26 429.591 878.26ZM462.009 859.7V880H460.24L447.19 863.528V880H445.044V859.7H446.813L459.892 876.172V859.7H462.009Z" fill="white"/>
<rect x="658" y="822" width="349" height="96" rx="12" stroke="#101010" stroke-width="4"/>
<path d="M785.766 869.531C787.1 869.821 788.125 870.401 788.84 871.271C789.575 872.122 789.942 873.224 789.942 874.577C789.942 876.317 789.295 877.661 787.999 878.608C786.723 879.536 784.829 880 782.315 880H772.977V859.7H781.735C783.997 859.7 785.747 860.154 786.984 861.063C788.241 861.972 788.869 863.257 788.869 864.92C788.869 866.041 788.589 866.998 788.028 867.791C787.487 868.564 786.733 869.144 785.766 869.531ZM775.123 861.469V868.835H781.59C783.234 868.835 784.5 868.526 785.389 867.907C786.279 867.269 786.723 866.351 786.723 865.152C786.723 863.953 786.279 863.045 785.389 862.426C784.5 861.788 783.234 861.469 781.59 861.469H775.123ZM782.286 878.231C784.104 878.231 785.476 877.922 786.404 877.303C787.332 876.684 787.796 875.718 787.796 874.403C787.796 871.87 785.96 870.604 782.286 870.604H775.123V878.231H782.286ZM803.019 880.174C800.389 880.174 798.34 879.42 796.871 877.912C795.401 876.404 794.667 874.21 794.667 871.329V859.7H796.813V871.242C796.813 873.601 797.344 875.36 798.408 876.52C799.471 877.68 801.008 878.26 803.019 878.26C805.049 878.26 806.595 877.68 807.659 876.52C808.722 875.36 809.254 873.601 809.254 871.242V859.7H811.342V871.329C811.342 874.21 810.607 876.404 809.138 877.912C807.688 879.42 805.648 880.174 803.019 880.174ZM821.356 861.556H814.222V859.7H830.636V861.556H823.502V880H821.356V861.556ZM838.292 861.556H831.158V859.7H847.572V861.556H840.438V880H838.292V861.556ZM859.591 880.174C857.58 880.174 855.753 879.729 854.11 878.84C852.486 877.931 851.21 876.694 850.282 875.128C849.373 873.562 848.919 871.803 848.919 869.85C848.919 867.897 849.373 866.138 850.282 864.572C851.21 863.006 852.486 861.778 854.11 860.889C855.753 859.98 857.58 859.526 859.591 859.526C861.601 859.526 863.409 859.971 865.014 860.86C866.638 861.749 867.914 862.987 868.842 864.572C869.77 866.138 870.234 867.897 870.234 869.85C870.234 871.803 869.77 873.572 868.842 875.157C867.914 876.723 866.638 877.951 865.014 878.84C863.409 879.729 861.601 880.174 859.591 880.174ZM859.591 878.26C861.195 878.26 862.645 877.902 863.941 877.187C865.236 876.452 866.251 875.447 866.986 874.171C867.72 872.876 868.088 871.435 868.088 869.85C868.088 868.265 867.72 866.834 866.986 865.558C866.251 864.263 865.236 863.257 863.941 862.542C862.645 861.807 861.195 861.44 859.591 861.44C857.986 861.44 856.526 861.807 855.212 862.542C853.916 863.257 852.892 864.263 852.138 865.558C851.403 866.834 851.036 868.265 851.036 869.85C851.036 871.435 851.403 872.876 852.138 874.171C852.892 875.447 853.916 876.452 855.212 877.187C856.526 877.902 857.986 878.26 859.591 878.26ZM892.009 859.7V880H890.24L877.19 863.528V880H875.044V859.7H876.813L889.892 876.172V859.7H892.009Z" fill="#101010"/>
<rect x="226" y="951" width="353" height="100" rx="14" fill="#9B9B9B"/>
<path d="M355.766 1000.53C357.1 1000.82 358.125 1001.4 358.84 1002.27C359.575 1003.12 359.942 1004.22 359.942 1005.58C359.942 1007.32 359.295 1008.66 357.999 1009.61C356.723 1010.54 354.829 1011 352.315 1011H342.977V990.7H351.735C353.997 990.7 355.747 991.154 356.984 992.063C358.241 992.972 358.869 994.257 358.869 995.92C358.869 997.041 358.589 997.998 358.028 998.791C357.487 999.564 356.733 1000.14 355.766 1000.53ZM345.123 992.469V999.835H351.59C353.234 999.835 354.5 999.526 355.389 998.907C356.279 998.269 356.723 997.351 356.723 996.152C356.723 994.953 356.279 994.045 355.389 993.426C354.5 992.788 353.234 992.469 351.59 992.469H345.123ZM352.286 1009.23C354.104 1009.23 355.476 1008.92 356.404 1008.3C357.332 1007.68 357.796 1006.72 357.796 1005.4C357.796 1002.87 355.96 1001.6 352.286 1001.6H345.123V1009.23H352.286ZM373.019 1011.17C370.389 1011.17 368.34 1010.42 366.871 1008.91C365.401 1007.4 364.667 1005.21 364.667 1002.33V990.7H366.813V1002.24C366.813 1004.6 367.344 1006.36 368.408 1007.52C369.471 1008.68 371.008 1009.26 373.019 1009.26C375.049 1009.26 376.595 1008.68 377.659 1007.52C378.722 1006.36 379.254 1004.6 379.254 1002.24V990.7H381.342V1002.33C381.342 1005.21 380.607 1007.4 379.138 1008.91C377.688 1010.42 375.648 1011.17 373.019 1011.17ZM391.356 992.556H384.222V990.7H400.636V992.556H393.502V1011H391.356V992.556ZM408.292 992.556H401.158V990.7H417.572V992.556H410.438V1011H408.292V992.556ZM429.591 1011.17C427.58 1011.17 425.753 1010.73 424.11 1009.84C422.486 1008.93 421.21 1007.69 420.282 1006.13C419.373 1004.56 418.919 1002.8 418.919 1000.85C418.919 998.897 419.373 997.138 420.282 995.572C421.21 994.006 422.486 992.778 424.11 991.889C425.753 990.98 427.58 990.526 429.591 990.526C431.601 990.526 433.409 990.971 435.014 991.86C436.638 992.749 437.914 993.987 438.842 995.572C439.77 997.138 440.234 998.897 440.234 1000.85C440.234 1002.8 439.77 1004.57 438.842 1006.16C437.914 1007.72 436.638 1008.95 435.014 1009.84C433.409 1010.73 431.601 1011.17 429.591 1011.17ZM429.591 1009.26C431.195 1009.26 432.645 1008.9 433.941 1008.19C435.236 1007.45 436.251 1006.45 436.986 1005.17C437.72 1003.88 438.088 1002.44 438.088 1000.85C438.088 999.265 437.72 997.834 436.986 996.558C436.251 995.263 435.236 994.257 433.941 993.542C432.645 992.807 431.195 992.44 429.591 992.44C427.986 992.44 426.526 992.807 425.212 993.542C423.916 994.257 422.892 995.263 422.138 996.558C421.403 997.834 421.036 999.265 421.036 1000.85C421.036 1002.44 421.403 1003.88 422.138 1005.17C422.892 1006.45 423.916 1007.45 425.212 1008.19C426.526 1008.9 427.986 1009.26 429.591 1009.26ZM462.009 990.7V1011H460.24L447.19 994.528V1011H445.044V990.7H446.813L459.892 1007.17V990.7H462.009Z" fill="white"/>
<rect x="658" y="953" width="349" height="96" rx="12" stroke="#9B9B9B" stroke-width="4"/>
<path d="M785.766 1000.53C787.1 1000.82 788.125 1001.4 788.84 1002.27C789.575 1003.12 789.942 1004.22 789.942 1005.58C789.942 1007.32 789.295 1008.66 787.999 1009.61C786.723 1010.54 784.829 1011 782.315 1011H772.977V990.7H781.735C783.997 990.7 785.747 991.154 786.984 992.063C788.241 992.972 788.869 994.257 788.869 995.92C788.869 997.041 788.589 997.998 788.028 998.791C787.487 999.564 786.733 1000.14 785.766 1000.53ZM775.123 992.469V999.835H781.59C783.234 999.835 784.5 999.526 785.389 998.907C786.279 998.269 786.723 997.351 786.723 996.152C786.723 994.953 786.279 994.045 785.389 993.426C784.5 992.788 783.234 992.469 781.59 992.469H775.123ZM782.286 1009.23C784.104 1009.23 785.476 1008.92 786.404 1008.3C787.332 1007.68 787.796 1006.72 787.796 1005.4C787.796 1002.87 785.96 1001.6 782.286 1001.6H775.123V1009.23H782.286ZM803.019 1011.17C800.389 1011.17 798.34 1010.42 796.871 1008.91C795.401 1007.4 794.667 1005.21 794.667 1002.33V990.7H796.813V1002.24C796.813 1004.6 797.344 1006.36 798.408 1007.52C799.471 1008.68 801.008 1009.26 803.019 1009.26C805.049 1009.26 806.595 1008.68 807.659 1007.52C808.722 1006.36 809.254 1004.6 809.254 1002.24V990.7H811.342V1002.33C811.342 1005.21 810.607 1007.4 809.138 1008.91C807.688 1010.42 805.648 1011.17 803.019 1011.17ZM821.356 992.556H814.222V990.7H830.636V992.556H823.502V1011H821.356V992.556ZM838.292 992.556H831.158V990.7H847.572V992.556H840.438V1011H838.292V992.556ZM859.591 1011.17C857.58 1011.17 855.753 1010.73 854.11 1009.84C852.486 1008.93 851.21 1007.69 850.282 1006.13C849.373 1004.56 848.919 1002.8 848.919 1000.85C848.919 998.897 849.373 997.138 850.282 995.572C851.21 994.006 852.486 992.778 854.11 991.889C855.753 990.98 857.58 990.526 859.591 990.526C861.601 990.526 863.409 990.971 865.014 991.86C866.638 992.749 867.914 993.987 868.842 995.572C869.77 997.138 870.234 998.897 870.234 1000.85C870.234 1002.8 869.77 1004.57 868.842 1006.16C867.914 1007.72 866.638 1008.95 865.014 1009.84C863.409 1010.73 861.601 1011.17 859.591 1011.17ZM859.591 1009.26C861.195 1009.26 862.645 1008.9 863.941 1008.19C865.236 1007.45 866.251 1006.45 866.986 1005.17C867.72 1003.88 868.088 1002.44 868.088 1000.85C868.088 999.265 867.72 997.834 866.986 996.558C866.251 995.263 865.236 994.257 863.941 993.542C862.645 992.807 861.195 992.44 859.591 992.44C857.986 992.44 856.526 992.807 855.212 993.542C853.916 994.257 852.892 995.263 852.138 996.558C851.403 997.834 851.036 999.265 851.036 1000.85C851.036 1002.44 851.403 1003.88 852.138 1005.17C852.892 1006.45 853.916 1007.45 855.212 1008.19C856.526 1008.9 857.986 1009.26 859.591 1009.26ZM892.009 990.7V1011H890.24L877.19 994.528V1011H875.044V990.7H876.813L889.892 1007.17V990.7H892.009Z" fill="#9B9B9B"/>
<rect x="226" y="296" width="353" height="100" rx="14" fill="#11D181"/>
<path d="M355.766 345.531C357.1 345.821 358.125 346.401 358.84 347.271C359.575 348.122 359.942 349.224 359.942 350.577C359.942 352.317 359.295 353.661 357.999 354.608C356.723 355.536 354.829 356 352.315 356H342.977V335.7H351.735C353.997 335.7 355.747 336.154 356.984 337.063C358.241 337.972 358.869 339.257 358.869 340.92C358.869 342.041 358.589 342.998 358.028 343.791C357.487 344.564 356.733 345.144 355.766 345.531ZM345.123 337.469V344.835H351.59C353.234 344.835 354.5 344.526 355.389 343.907C356.279 343.269 356.723 342.351 356.723 341.152C356.723 339.953 356.279 339.045 355.389 338.426C354.5 337.788 353.234 337.469 351.59 337.469H345.123ZM352.286 354.231C354.104 354.231 355.476 353.922 356.404 353.303C357.332 352.684 357.796 351.718 357.796 350.403C357.796 347.87 355.96 346.604 352.286 346.604H345.123V354.231H352.286ZM373.019 356.174C370.389 356.174 368.34 355.42 366.871 353.912C365.401 352.404 364.667 350.21 364.667 347.329V335.7H366.813V347.242C366.813 349.601 367.344 351.36 368.408 352.52C369.471 353.68 371.008 354.26 373.019 354.26C375.049 354.26 376.595 353.68 377.659 352.52C378.722 351.36 379.254 349.601 379.254 347.242V335.7H381.342V347.329C381.342 350.21 380.607 352.404 379.138 353.912C377.688 355.42 375.648 356.174 373.019 356.174ZM391.356 337.556H384.222V335.7H400.636V337.556H393.502V356H391.356V337.556ZM408.292 337.556H401.158V335.7H417.572V337.556H410.438V356H408.292V337.556ZM429.591 356.174C427.58 356.174 425.753 355.729 424.11 354.84C422.486 353.931 421.21 352.694 420.282 351.128C419.373 349.562 418.919 347.803 418.919 345.85C418.919 343.897 419.373 342.138 420.282 340.572C421.21 339.006 422.486 337.778 424.11 336.889C425.753 335.98 427.58 335.526 429.591 335.526C431.601 335.526 433.409 335.971 435.014 336.86C436.638 337.749 437.914 338.987 438.842 340.572C439.77 342.138 440.234 343.897 440.234 345.85C440.234 347.803 439.77 349.572 438.842 351.157C437.914 352.723 436.638 353.951 435.014 354.84C433.409 355.729 431.601 356.174 429.591 356.174ZM429.591 354.26C431.195 354.26 432.645 353.902 433.941 353.187C435.236 352.452 436.251 351.447 436.986 350.171C437.72 348.876 438.088 347.435 438.088 345.85C438.088 344.265 437.72 342.834 436.986 341.558C436.251 340.263 435.236 339.257 433.941 338.542C432.645 337.807 431.195 337.44 429.591 337.44C427.986 337.44 426.526 337.807 425.212 338.542C423.916 339.257 422.892 340.263 422.138 341.558C421.403 342.834 421.036 344.265 421.036 345.85C421.036 347.435 421.403 348.876 422.138 350.171C422.892 351.447 423.916 352.452 425.212 353.187C426.526 353.902 427.986 354.26 429.591 354.26ZM462.009 335.7V356H460.24L447.19 339.528V356H445.044V335.7H446.813L459.892 352.172V335.7H462.009Z" fill="white"/>
<rect x="658" y="298" width="349" height="96" rx="12" stroke="#11D181" stroke-width="4"/>
<path d="M785.766 345.531C787.1 345.821 788.125 346.401 788.84 347.271C789.575 348.122 789.942 349.224 789.942 350.577C789.942 352.317 789.295 353.661 787.999 354.608C786.723 355.536 784.829 356 782.315 356H772.977V335.7H781.735C783.997 335.7 785.747 336.154 786.984 337.063C788.241 337.972 788.869 339.257 788.869 340.92C788.869 342.041 788.589 342.998 788.028 343.791C787.487 344.564 786.733 345.144 785.766 345.531ZM775.123 337.469V344.835H781.59C783.234 344.835 784.5 344.526 785.389 343.907C786.279 343.269 786.723 342.351 786.723 341.152C786.723 339.953 786.279 339.045 785.389 338.426C784.5 337.788 783.234 337.469 781.59 337.469H775.123ZM782.286 354.231C784.104 354.231 785.476 353.922 786.404 353.303C787.332 352.684 787.796 351.718 787.796 350.403C787.796 347.87 785.96 346.604 782.286 346.604H775.123V354.231H782.286ZM803.019 356.174C800.389 356.174 798.34 355.42 796.871 353.912C795.401 352.404 794.667 350.21 794.667 347.329V335.7H796.813V347.242C796.813 349.601 797.344 351.36 798.408 352.52C799.471 353.68 801.008 354.26 803.019 354.26C805.049 354.26 806.595 353.68 807.659 352.52C808.722 351.36 809.254 349.601 809.254 347.242V335.7H811.342V347.329C811.342 350.21 810.607 352.404 809.138 353.912C807.688 355.42 805.648 356.174 803.019 356.174ZM821.356 337.556H814.222V335.7H830.636V337.556H823.502V356H821.356V337.556ZM838.292 337.556H831.158V335.7H847.572V337.556H840.438V356H838.292V337.556ZM859.591 356.174C857.58 356.174 855.753 355.729 854.11 354.84C852.486 353.931 851.21 352.694 850.282 351.128C849.373 349.562 848.919 347.803 848.919 345.85C848.919 343.897 849.373 342.138 850.282 340.572C851.21 339.006 852.486 337.778 854.11 336.889C855.753 335.98 857.58 335.526 859.591 335.526C861.601 335.526 863.409 335.971 865.014 336.86C866.638 337.749 867.914 338.987 868.842 340.572C869.77 342.138 870.234 343.897 870.234 345.85C870.234 347.803 869.77 349.572 868.842 351.157C867.914 352.723 866.638 353.951 865.014 354.84C863.409 355.729 861.601 356.174 859.591 356.174ZM859.591 354.26C861.195 354.26 862.645 353.902 863.941 353.187C865.236 352.452 866.251 351.447 866.986 350.171C867.72 348.876 868.088 347.435 868.088 345.85C868.088 344.265 867.72 342.834 866.986 341.558C866.251 340.263 865.236 339.257 863.941 338.542C862.645 337.807 861.195 337.44 859.591 337.44C857.986 337.44 856.526 337.807 855.212 338.542C853.916 339.257 852.892 340.263 852.138 341.558C851.403 342.834 851.036 344.265 851.036 345.85C851.036 347.435 851.403 348.876 852.138 350.171C852.892 351.447 853.916 352.452 855.212 353.187C856.526 353.902 857.986 354.26 859.591 354.26ZM892.009 335.7V356H890.24L877.19 339.528V356H875.044V335.7H876.813L889.892 352.172V335.7H892.009Z" fill="#11D181"/>
<rect x="226" y="427" width="353" height="100" rx="14" fill="#4677FF"/>
<path d="M355.766 476.531C357.1 476.821 358.125 477.401 358.84 478.271C359.575 479.122 359.942 480.224 359.942 481.577C359.942 483.317 359.295 484.661 357.999 485.608C356.723 486.536 354.829 487 352.315 487H342.977V466.7H351.735C353.997 466.7 355.747 467.154 356.984 468.063C358.241 468.972 358.869 470.257 358.869 471.92C358.869 473.041 358.589 473.998 358.028 474.791C357.487 475.564 356.733 476.144 355.766 476.531ZM345.123 468.469V475.835H351.59C353.234 475.835 354.5 475.526 355.389 474.907C356.279 474.269 356.723 473.351 356.723 472.152C356.723 470.953 356.279 470.045 355.389 469.426C354.5 468.788 353.234 468.469 351.59 468.469H345.123ZM352.286 485.231C354.104 485.231 355.476 484.922 356.404 484.303C357.332 483.684 357.796 482.718 357.796 481.403C357.796 478.87 355.96 477.604 352.286 477.604H345.123V485.231H352.286ZM373.019 487.174C370.389 487.174 368.34 486.42 366.871 484.912C365.401 483.404 364.667 481.21 364.667 478.329V466.7H366.813V478.242C366.813 480.601 367.344 482.36 368.408 483.52C369.471 484.68 371.008 485.26 373.019 485.26C375.049 485.26 376.595 484.68 377.659 483.52C378.722 482.36 379.254 480.601 379.254 478.242V466.7H381.342V478.329C381.342 481.21 380.607 483.404 379.138 484.912C377.688 486.42 375.648 487.174 373.019 487.174ZM391.356 468.556H384.222V466.7H400.636V468.556H393.502V487H391.356V468.556ZM408.292 468.556H401.158V466.7H417.572V468.556H410.438V487H408.292V468.556ZM429.591 487.174C427.58 487.174 425.753 486.729 424.11 485.84C422.486 484.931 421.21 483.694 420.282 482.128C419.373 480.562 418.919 478.803 418.919 476.85C418.919 474.897 419.373 473.138 420.282 471.572C421.21 470.006 422.486 468.778 424.11 467.889C425.753 466.98 427.58 466.526 429.591 466.526C431.601 466.526 433.409 466.971 435.014 467.86C436.638 468.749 437.914 469.987 438.842 471.572C439.77 473.138 440.234 474.897 440.234 476.85C440.234 478.803 439.77 480.572 438.842 482.157C437.914 483.723 436.638 484.951 435.014 485.84C433.409 486.729 431.601 487.174 429.591 487.174ZM429.591 485.26C431.195 485.26 432.645 484.902 433.941 484.187C435.236 483.452 436.251 482.447 436.986 481.171C437.72 479.876 438.088 478.435 438.088 476.85C438.088 475.265 437.72 473.834 436.986 472.558C436.251 471.263 435.236 470.257 433.941 469.542C432.645 468.807 431.195 468.44 429.591 468.44C427.986 468.44 426.526 468.807 425.212 469.542C423.916 470.257 422.892 471.263 422.138 472.558C421.403 473.834 421.036 475.265 421.036 476.85C421.036 478.435 421.403 479.876 422.138 481.171C422.892 482.447 423.916 483.452 425.212 484.187C426.526 484.902 427.986 485.26 429.591 485.26ZM462.009 466.7V487H460.24L447.19 470.528V487H445.044V466.7H446.813L459.892 483.172V466.7H462.009Z" fill="white"/>
<rect x="658" y="429" width="349" height="96" rx="12" stroke="#4677FF" stroke-width="4"/>
<path d="M785.766 476.531C787.1 476.821 788.125 477.401 788.84 478.271C789.575 479.122 789.942 480.224 789.942 481.577C789.942 483.317 789.295 484.661 787.999 485.608C786.723 486.536 784.829 487 782.315 487H772.977V466.7H781.735C783.997 466.7 785.747 467.154 786.984 468.063C788.241 468.972 788.869 470.257 788.869 471.92C788.869 473.041 788.589 473.998 788.028 474.791C787.487 475.564 786.733 476.144 785.766 476.531ZM775.123 468.469V475.835H781.59C783.234 475.835 784.5 475.526 785.389 474.907C786.279 474.269 786.723 473.351 786.723 472.152C786.723 470.953 786.279 470.045 785.389 469.426C784.5 468.788 783.234 468.469 781.59 468.469H775.123ZM782.286 485.231C784.104 485.231 785.476 484.922 786.404 484.303C787.332 483.684 787.796 482.718 787.796 481.403C787.796 478.87 785.96 477.604 782.286 477.604H775.123V485.231H782.286ZM803.019 487.174C800.389 487.174 798.34 486.42 796.871 484.912C795.401 483.404 794.667 481.21 794.667 478.329V466.7H796.813V478.242C796.813 480.601 797.344 482.36 798.408 483.52C799.471 484.68 801.008 485.26 803.019 485.26C805.049 485.26 806.595 484.68 807.659 483.52C808.722 482.36 809.254 480.601 809.254 478.242V466.7H811.342V478.329C811.342 481.21 810.607 483.404 809.138 484.912C807.688 486.42 805.648 487.174 803.019 487.174ZM821.356 468.556H814.222V466.7H830.636V468.556H823.502V487H821.356V468.556ZM838.292 468.556H831.158V466.7H847.572V468.556H840.438V487H838.292V468.556ZM859.591 487.174C857.58 487.174 855.753 486.729 854.11 485.84C852.486 484.931 851.21 483.694 850.282 482.128C849.373 480.562 848.919 478.803 848.919 476.85C848.919 474.897 849.373 473.138 850.282 471.572C851.21 470.006 852.486 468.778 854.11 467.889C855.753 466.98 857.58 466.526 859.591 466.526C861.601 466.526 863.409 466.971 865.014 467.86C866.638 468.749 867.914 469.987 868.842 471.572C869.77 473.138 870.234 474.897 870.234 476.85C870.234 478.803 869.77 480.572 868.842 482.157C867.914 483.723 866.638 484.951 865.014 485.84C863.409 486.729 861.601 487.174 859.591 487.174ZM859.591 485.26C861.195 485.26 862.645 484.902 863.941 484.187C865.236 483.452 866.251 482.447 866.986 481.171C867.72 479.876 868.088 478.435 868.088 476.85C868.088 475.265 867.72 473.834 866.986 472.558C866.251 471.263 865.236 470.257 863.941 469.542C862.645 468.807 861.195 468.44 859.591 468.44C857.986 468.44 856.526 468.807 855.212 469.542C853.916 470.257 852.892 471.263 852.138 472.558C851.403 473.834 851.036 475.265 851.036 476.85C851.036 478.435 851.403 479.876 852.138 481.171C852.892 482.447 853.916 483.452 855.212 484.187C856.526 484.902 857.986 485.26 859.591 485.26ZM892.009 466.7V487H890.24L877.19 470.528V487H875.044V466.7H876.813L889.892 483.172V466.7H892.009Z" fill="#4677FF"/>
<rect x="226" y="558" width="353" height="100" rx="14" fill="#FAFF16"/>
<path d="M355.766 607.531C357.1 607.821 358.125 608.401 358.84 609.271C359.575 610.122 359.942 611.224 359.942 612.577C359.942 614.317 359.295 615.661 357.999 616.608C356.723 617.536 354.829 618 352.315 618H342.977V597.7H351.735C353.997 597.7 355.747 598.154 356.984 599.063C358.241 599.972 358.869 601.257 358.869 602.92C358.869 604.041 358.589 604.998 358.028 605.791C357.487 606.564 356.733 607.144 355.766 607.531ZM345.123 599.469V606.835H351.59C353.234 606.835 354.5 606.526 355.389 605.907C356.279 605.269 356.723 604.351 356.723 603.152C356.723 601.953 356.279 601.045 355.389 600.426C354.5 599.788 353.234 599.469 351.59 599.469H345.123ZM352.286 616.231C354.104 616.231 355.476 615.922 356.404 615.303C357.332 614.684 357.796 613.718 357.796 612.403C357.796 609.87 355.96 608.604 352.286 608.604H345.123V616.231H352.286ZM373.019 618.174C370.389 618.174 368.34 617.42 366.871 615.912C365.401 614.404 364.667 612.21 364.667 609.329V597.7H366.813V609.242C366.813 611.601 367.344 613.36 368.408 614.52C369.471 615.68 371.008 616.26 373.019 616.26C375.049 616.26 376.595 615.68 377.659 614.52C378.722 613.36 379.254 611.601 379.254 609.242V597.7H381.342V609.329C381.342 612.21 380.607 614.404 379.138 615.912C377.688 617.42 375.648 618.174 373.019 618.174ZM391.356 599.556H384.222V597.7H400.636V599.556H393.502V618H391.356V599.556ZM408.292 599.556H401.158V597.7H417.572V599.556H410.438V618H408.292V599.556ZM429.591 618.174C427.58 618.174 425.753 617.729 424.11 616.84C422.486 615.931 421.21 614.694 420.282 613.128C419.373 611.562 418.919 609.803 418.919 607.85C418.919 605.897 419.373 604.138 420.282 602.572C421.21 601.006 422.486 599.778 424.11 598.889C425.753 597.98 427.58 597.526 429.591 597.526C431.601 597.526 433.409 597.971 435.014 598.86C436.638 599.749 437.914 600.987 438.842 602.572C439.77 604.138 440.234 605.897 440.234 607.85C440.234 609.803 439.77 611.572 438.842 613.157C437.914 614.723 436.638 615.951 435.014 616.84C433.409 617.729 431.601 618.174 429.591 618.174ZM429.591 616.26C431.195 616.26 432.645 615.902 433.941 615.187C435.236 614.452 436.251 613.447 436.986 612.171C437.72 610.876 438.088 609.435 438.088 607.85C438.088 606.265 437.72 604.834 436.986 603.558C436.251 602.263 435.236 601.257 433.941 600.542C432.645 599.807 431.195 599.44 429.591 599.44C427.986 599.44 426.526 599.807 425.212 600.542C423.916 601.257 422.892 602.263 422.138 603.558C421.403 604.834 421.036 606.265 421.036 607.85C421.036 609.435 421.403 610.876 422.138 612.171C422.892 613.447 423.916 614.452 425.212 615.187C426.526 615.902 427.986 616.26 429.591 616.26ZM462.009 597.7V618H460.24L447.19 601.528V618H445.044V597.7H446.813L459.892 614.172V597.7H462.009Z" fill="black"/>
<rect x="658" y="560" width="349" height="96" rx="12" stroke="#FAFF16" stroke-width="4"/>
<path d="M785.766 607.531C787.1 607.821 788.125 608.401 788.84 609.271C789.575 610.122 789.942 611.224 789.942 612.577C789.942 614.317 789.295 615.661 787.999 616.608C786.723 617.536 784.829 618 782.315 618H772.977V597.7H781.735C783.997 597.7 785.747 598.154 786.984 599.063C788.241 599.972 788.869 601.257 788.869 602.92C788.869 604.041 788.589 604.998 788.028 605.791C787.487 606.564 786.733 607.144 785.766 607.531ZM775.123 599.469V606.835H781.59C783.234 606.835 784.5 606.526 785.389 605.907C786.279 605.269 786.723 604.351 786.723 603.152C786.723 601.953 786.279 601.045 785.389 600.426C784.5 599.788 783.234 599.469 781.59 599.469H775.123ZM782.286 616.231C784.104 616.231 785.476 615.922 786.404 615.303C787.332 614.684 787.796 613.718 787.796 612.403C787.796 609.87 785.96 608.604 782.286 608.604H775.123V616.231H782.286ZM803.019 618.174C800.389 618.174 798.34 617.42 796.871 615.912C795.401 614.404 794.667 612.21 794.667 609.329V597.7H796.813V609.242C796.813 611.601 797.344 613.36 798.408 614.52C799.471 615.68 801.008 616.26 803.019 616.26C805.049 616.26 806.595 615.68 807.659 614.52C808.722 613.36 809.254 611.601 809.254 609.242V597.7H811.342V609.329C811.342 612.21 810.607 614.404 809.138 615.912C807.688 617.42 805.648 618.174 803.019 618.174ZM821.356 599.556H814.222V597.7H830.636V599.556H823.502V618H821.356V599.556ZM838.292 599.556H831.158V597.7H847.572V599.556H840.438V618H838.292V599.556ZM859.591 618.174C857.58 618.174 855.753 617.729 854.11 616.84C852.486 615.931 851.21 614.694 850.282 613.128C849.373 611.562 848.919 609.803 848.919 607.85C848.919 605.897 849.373 604.138 850.282 602.572C851.21 601.006 852.486 599.778 854.11 598.889C855.753 597.98 857.58 597.526 859.591 597.526C861.601 597.526 863.409 597.971 865.014 598.86C866.638 599.749 867.914 600.987 868.842 602.572C869.77 604.138 870.234 605.897 870.234 607.85C870.234 609.803 869.77 611.572 868.842 613.157C867.914 614.723 866.638 615.951 865.014 616.84C863.409 617.729 861.601 618.174 859.591 618.174ZM859.591 616.26C861.195 616.26 862.645 615.902 863.941 615.187C865.236 614.452 866.251 613.447 866.986 612.171C867.72 610.876 868.088 609.435 868.088 607.85C868.088 606.265 867.72 604.834 866.986 603.558C866.251 602.263 865.236 601.257 863.941 600.542C862.645 599.807 861.195 599.44 859.591 599.44C857.986 599.44 856.526 599.807 855.212 600.542C853.916 601.257 852.892 602.263 852.138 603.558C851.403 604.834 851.036 606.265 851.036 607.85C851.036 609.435 851.403 610.876 852.138 612.171C852.892 613.447 853.916 614.452 855.212 615.187C856.526 615.902 857.986 616.26 859.591 616.26ZM892.009 597.7V618H890.24L877.19 601.528V618H875.044V597.7H876.813L889.892 614.172V597.7H892.009Z" fill="#FAFF16"/>
<rect x="1086" y="165" width="100" height="100" rx="14" fill="#E7002A"/>
<path d="M1141.64 219.577H1130.33L1127.9 225H1125.66L1134.94 204.7H1137.06L1146.34 225H1144.08L1141.64 219.577ZM1140.86 217.837L1135.99 206.933L1131.12 217.837H1140.86Z" fill="white"/>
<rect x="1265" y="167" width="96" height="96" rx="12" stroke="#E7002A" stroke-width="4"/>
<path d="M1318.64 219.577H1307.33L1304.9 225H1302.66L1311.94 204.7H1314.06L1323.34 225H1321.08L1318.64 219.577ZM1317.86 217.837L1312.99 206.933L1308.12 217.837H1317.86Z" fill="#E7002A"/>
<rect x="1086" y="296" width="100" height="100" rx="14" fill="#11D181"/>
<path d="M1141.64 350.577H1130.33L1127.9 356H1125.66L1134.94 335.7H1137.06L1146.34 356H1144.08L1141.64 350.577ZM1140.86 348.837L1135.99 337.933L1131.12 348.837H1140.86Z" fill="white"/>
<rect x="1265" y="298" width="96" height="96" rx="12" stroke="#11D181" stroke-width="4"/>
<path d="M1318.64 350.577H1307.33L1304.9 356H1302.66L1311.94 335.7H1314.06L1323.34 356H1321.08L1318.64 350.577ZM1317.86 348.837L1312.99 337.933L1308.12 348.837H1317.86Z" fill="#11D181"/>
<rect x="1086" y="427" width="100" height="100" rx="14" fill="#4677FF"/>
<path d="M1141.64 481.577H1130.33L1127.9 487H1125.66L1134.94 466.7H1137.06L1146.34 487H1144.08L1141.64 481.577ZM1140.86 479.837L1135.99 468.933L1131.12 479.837H1140.86Z" fill="white"/>
<rect x="1265" y="429" width="96" height="96" rx="12" stroke="#4677FF" stroke-width="4"/>
<path d="M1318.64 481.577H1307.33L1304.9 487H1302.66L1311.94 466.7H1314.06L1323.34 487H1321.08L1318.64 481.577ZM1317.86 479.837L1312.99 468.933L1308.12 479.837H1317.86Z" fill="#4677FF"/>
<rect x="1086" y="558" width="100" height="100" rx="14" fill="#FAFF16"/>
<path d="M1141.64 612.577H1130.33L1127.9 618H1125.66L1134.94 597.7H1137.06L1146.34 618H1144.08L1141.64 612.577ZM1140.86 610.837L1135.99 599.933L1131.12 610.837H1140.86Z" fill="black"/>
<rect x="1265" y="560" width="96" height="96" rx="12" stroke="#FAFF16" stroke-width="4"/>
<path d="M1318.64 612.577H1307.33L1304.9 618H1302.66L1311.94 597.7H1314.06L1323.34 618H1321.08L1318.64 612.577ZM1317.86 610.837L1312.99 599.933L1308.12 610.837H1317.86Z" fill="#FAFF16"/>
<rect x="1086" y="689" width="100" height="100" rx="14" fill="#6300C7"/>
<path d="M1141.64 743.577H1130.33L1127.9 749H1125.66L1134.94 728.7H1137.06L1146.34 749H1144.08L1141.64 743.577ZM1140.86 741.837L1135.99 730.933L1131.12 741.837H1140.86Z" fill="white"/>
<rect x="1265" y="691" width="96" height="96" rx="12" stroke="#6300C7" stroke-width="4"/>
<path d="M1318.64 743.577H1307.33L1304.9 749H1302.66L1311.94 728.7H1314.06L1323.34 749H1321.08L1318.64 743.577ZM1317.86 741.837L1312.99 730.933L1308.12 741.837H1317.86Z" fill="#6300C7"/>
<rect x="1086" y="820" width="100" height="100" rx="14" fill="#101010"/>
<path d="M1141.64 874.577H1130.33L1127.9 880H1125.66L1134.94 859.7H1137.06L1146.34 880H1144.08L1141.64 874.577ZM1140.86 872.837L1135.99 861.933L1131.12 872.837H1140.86Z" fill="white"/>
<rect x="1265" y="822" width="96" height="96" rx="12" stroke="#101010" stroke-width="4"/>
<path d="M1318.64 874.577H1307.33L1304.9 880H1302.66L1311.94 859.7H1314.06L1323.34 880H1321.08L1318.64 874.577ZM1317.86 872.837L1312.99 861.933L1308.12 872.837H1317.86Z" fill="#101010"/>
<rect x="1086" y="951" width="100" height="100" rx="14" fill="#9B9B9B"/>
<path d="M1141.64 1005.58H1130.33L1127.9 1011H1125.66L1134.94 990.7H1137.06L1146.34 1011H1144.08L1141.64 1005.58ZM1140.86 1003.84L1135.99 992.933L1131.12 1003.84H1140.86Z" fill="white"/>
<rect x="1265" y="953" width="96" height="96" rx="12" stroke="#9B9B9B" stroke-width="4"/>
<path d="M1318.64 1005.58H1307.33L1304.9 1011H1302.66L1311.94 990.7H1314.06L1323.34 1011H1321.08L1318.64 1005.58ZM1317.86 1003.84L1312.99 992.933L1308.12 1003.84H1317.86Z" fill="#9B9B9B"/>
<rect x="1440" y="165" width="100" height="100" rx="50" fill="#E7002A"/>
<path d="M1495.64 219.577H1484.33L1481.9 225H1479.66L1488.94 204.7H1491.06L1500.34 225H1498.08L1495.64 219.577ZM1494.86 217.837L1489.99 206.933L1485.12 217.837H1494.86Z" fill="white"/>
<rect x="1619" y="167" width="96" height="96" rx="48" stroke="#E7002A" stroke-width="4"/>
<path d="M1672.64 219.577H1661.33L1658.9 225H1656.66L1665.94 204.7H1668.06L1677.34 225H1675.08L1672.64 219.577ZM1671.86 217.837L1666.99 206.933L1662.12 217.837H1671.86Z" fill="#E7002A"/>
<rect x="1440" y="296" width="100" height="100" rx="50" fill="#11D181"/>
<path d="M1495.64 350.577H1484.33L1481.9 356H1479.66L1488.94 335.7H1491.06L1500.34 356H1498.08L1495.64 350.577ZM1494.86 348.837L1489.99 337.933L1485.12 348.837H1494.86Z" fill="white"/>
<rect x="1619" y="298" width="96" height="96" rx="48" stroke="#11D181" stroke-width="4"/>
<path d="M1672.64 350.577H1661.33L1658.9 356H1656.66L1665.94 335.7H1668.06L1677.34 356H1675.08L1672.64 350.577ZM1671.86 348.837L1666.99 337.933L1662.12 348.837H1671.86Z" fill="#11D181"/>
<rect x="1440" y="427" width="100" height="100" rx="50" fill="#4677FF"/>
<path d="M1495.64 481.577H1484.33L1481.9 487H1479.66L1488.94 466.7H1491.06L1500.34 487H1498.08L1495.64 481.577ZM1494.86 479.837L1489.99 468.933L1485.12 479.837H1494.86Z" fill="white"/>
<rect x="1619" y="429" width="96" height="96" rx="48" stroke="#4677FF" stroke-width="4"/>
<path d="M1672.64 481.577H1661.33L1658.9 487H1656.66L1665.94 466.7H1668.06L1677.34 487H1675.08L1672.64 481.577ZM1671.86 479.837L1666.99 468.933L1662.12 479.837H1671.86Z" fill="#4677FF"/>
<rect x="1440" y="558" width="100" height="100" rx="50" fill="#FAFF16"/>
<path d="M1495.64 612.577H1484.33L1481.9 618H1479.66L1488.94 597.7H1491.06L1500.34 618H1498.08L1495.64 612.577ZM1494.86 610.837L1489.99 599.933L1485.12 610.837H1494.86Z" fill="black"/>
<rect x="1619" y="560" width="96" height="96" rx="48" stroke="#FAFF16" stroke-width="4"/>
<path d="M1672.64 612.577H1661.33L1658.9 618H1656.66L1665.94 597.7H1668.06L1677.34 618H1675.08L1672.64 612.577ZM1671.86 610.837L1666.99 599.933L1662.12 610.837H1671.86Z" fill="#FAFF16"/>
<rect x="1440" y="689" width="100" height="100" rx="50" fill="#6300C7"/>
<path d="M1495.64 743.577H1484.33L1481.9 749H1479.66L1488.94 728.7H1491.06L1500.34 749H1498.08L1495.64 743.577ZM1494.86 741.837L1489.99 730.933L1485.12 741.837H1494.86Z" fill="white"/>
<rect x="1619" y="691" width="96" height="96" rx="48" stroke="#6300C7" stroke-width="4"/>
<path d="M1672.64 743.577H1661.33L1658.9 749H1656.66L1665.94 728.7H1668.06L1677.34 749H1675.08L1672.64 743.577ZM1671.86 741.837L1666.99 730.933L1662.12 741.837H1671.86Z" fill="#6300C7"/>
<rect x="1440" y="820" width="100" height="100" rx="50" fill="#101010"/>
<path d="M1495.64 874.577H1484.33L1481.9 880H1479.66L1488.94 859.7H1491.06L1500.34 880H1498.08L1495.64 874.577ZM1494.86 872.837L1489.99 861.933L1485.12 872.837H1494.86Z" fill="white"/>
<rect x="1619" y="822" width="96" height="96" rx="48" stroke="#101010" stroke-width="4"/>
<path d="M1672.64 874.577H1661.33L1658.9 880H1656.66L1665.94 859.7H1668.06L1677.34 880H1675.08L1672.64 874.577ZM1671.86 872.837L1666.99 861.933L1662.12 872.837H1671.86Z" fill="#101010"/>
<rect x="1440" y="951" width="100" height="100" rx="50" fill="#9B9B9B"/>
<path d="M1495.64 1005.58H1484.33L1481.9 1011H1479.66L1488.94 990.7H1491.06L1500.34 1011H1498.08L1495.64 1005.58ZM1494.86 1003.84L1489.99 992.933L1485.12 1003.84H1494.86Z" fill="white"/>
<rect x="1619" y="953" width="96" height="96" rx="48" stroke="#9B9B9B" stroke-width="4"/>
<path d="M1672.64 1005.58H1661.33L1658.9 1011H1656.66L1665.94 990.7H1668.06L1677.34 1011H1675.08L1672.64 1005.58ZM1671.86 1003.84L1666.99 992.933L1662.12 1003.84H1671.86Z" fill="#9B9B9B"/>
</g>
<defs>
<clipPath id="clip0">
<rect width="1368" height="1648" fill="white" transform="translate(140 1480) rotate(-90)"/>
</clipPath>
</defs>
</svg>
